<svg id="SvgjsSvg1001" width="288" height="288" xmlns="http://www.w3.org/2000/svg" version="1.1" xmlns:xlink="http://www.w3.org/1999/xlink" xmlns:svgjs="http://svgjs.com/svgjs"><defs id="SvgjsDefs1002"></defs><g id="SvgjsG1008" transform="matrix(0.9167,0,0,0.9167,11.995200000000011,11.995200000000011)"><svg xmlns="http://www.w3.org/2000/svg" width="288" height="288" version="1.0" viewBox="0 0 512 512"><g transform="matrix(.1 0 0 -.1 0 512)" fill="#595b83" class="color000 svgShape"><path d="M425 4935l-25-24 0-238 0-239-65-64c-36-35-65-69-65-75 0-14 92-105 106-105 6 0 49 40 97 89l87 88 0 97 0 96 160 0 160 0 0-63 0-63-65-64c-36-35-65-69-65-75 0-14 92-105 106-105 6 0 49 40 97 89l87 88 0 272 0 272-25 24-24 25-271 0-271 0-24-25zm455-175l0-40-160 0-160 0 0 40 0 40 160 0 160 0 0-40zM4345 4535l-25-24 0-238 0-239-65-64c-36-35-65-69-65-75 0-14 92-105 106-105 6 0 49 40 97 89l87 88 0 97 0 96 160 0 160 0 0-63 0-63-65-64c-36-35-65-69-65-75 0-14 92-105 106-105 6 0 49 40 97 89l87 88 0 272 0 272-25 24-24 25-271 0-271 0-24-25zm455-175l0-40-160 0-160 0 0 40 0 40 160 0 160 0 0-40zM2410 4314c-186-22-389-79-543-153-229-109-492-337-630-546-149-225-242-483-265-730l-7-78-55-12c-111-22-193-84-240-180l-25-50 0-325 0-325 25-50c31-64 91-124 155-155 48-24 60-25 265-28l215-4 43-63c92-135 221-263 364-359l77-52-102-79c-128-102-268-241-347-347-119-160-202-366-217-543l-6-75 1443 0 1443 0-7 75c-15 169-88 350-208 520-72 102-266 301-380 389l-77 60 77 52c143 96 272 224 364 359l43 63 215 4c205 3 217 4 265 28 64 31 124 91 155 155l25 50 0 325 0 325-25 50c-47 96-129 158-240 180l-55 12-7 78c-23 247-116 505-265 730-93 140-291 337-436 433-179 119-376 201-585 243-94 19-370 33-452 23zm437-183c441-96 801-373 999-770 76-153 118-302 148-524l5-38-42 3-42 3-8 70c-47 431-366 825-792 978-156 55-214 62-555 62-341 0-399-7-555-62-426-153-745-547-792-978l-8-70-42-3c-42-3-43-2-38 25 2 15 9 66 15 112 14 102 49 224 96 340 193 465 633 800 1144 871 104 14 361 4 467-19zm-582-1178c87-164 279-315 477-375 70-21 91-22 546-26l472-3 0-315 0-315-31-62c-175-350-500-590-882-652-123-20-451-20-574 0-382 62-707 302-882 652l-31 62 0 314 0 315 153 5c223 7 339 46 496 165 74 57 168 163 206 235 11 20 22 37 25 37 3 0 14-17 25-37zm7-1909c139-20 530-15 643 9 39 8 71 14 72 13 3-3-421-535-427-535-4 0-361 444-415 516-17 23-17 26-2 20 9-3 67-14 129-23z" fill="#595b83" class="color000 svgShape"></path><path d="M1695 2196c-8-20-22-52-30-73-8-20-14-37-12-39 1-2 52-20 112-41l110-38 170 0c166 0 172 1 265 33 136 47 130 39 90 122-26 53-38 69-50 64-116-49-166-59-310-59-147 0-171 5-313 60-13 6-20-1-32-29zM2720 2160c-40-83-46-75 90-122 93-32 99-33 265-33l170 0 110 38c60 21 110 39 112 41 4 3-47 129-56 138-3 4-47-7-96-25-86-30-97-32-235-32-144 0-194 10-310 59-12 5-24-11-50-64zM2160 1664l-55-55 40-35c47-40 148-94 225-120 79-27 301-27 380 0 77 26 178 80 225 121l40 34-56 56-56 57-54-41c-87-66-154-86-289-86-134 0-202 20-288 85-29 22-54 40-55 40-1 0-27-25-57-56zM320 3600l0-80-80 0-80 0 0-80 0-80 80 0 80 0 0-80 0-80 80 0 80 0 0 80 0 80 80 0 80 0 0 80 0 80-80 0-80 0 0 80 0 80-80 0-80 0 0-80zm160-160l0-80-80 0-80 0 0 80 0 80 80 0 80 0 0-80zM4640 2960l0-80-80 0-80 0 0-80 0-80 80 0 80 0 0-80 0-80 80 0 80 0 0 80 0 80 80 0 80 0 0 80 0 80-80 0-80 0 0 80 0 80-80 0-80 0 0-80zm160-160l0-80-80 0-80 0 0 80 0 80 80 0 80 0 0-80z" fill="#595b83" class="color000 svgShape"></path></g></svg></g></svg>